<svg width="49" height="49" viewBox="0 0 49 49" fill="none" xmlns="http://www.w3.org/2000/svg">
<mask id="mask0_946_17388" style="mask-type:alpha" maskUnits="userSpaceOnUse" x="0" y="0" width="49" height="49">
<rect x="0.101562" y="0.343262" width="48" height="48" fill="white"/>
</mask>
<g mask="url(#mask0_946_17388)">
<path d="M12.291 8.20623C12.291 7.18166 13.1216 6.35107 14.1462 6.35107H32.6978C33.7224 6.35107 34.5529 7.18166 34.5529 8.20623V39.744C34.5529 40.7685 33.7224 41.5991 32.6978 41.5991H14.1462C13.1216 41.5991 12.291 40.7685 12.291 39.744V8.20623Z" fill="white"/>
<path fill-rule="evenodd" clip-rule="evenodd" d="M32.6978 7.04676H14.1462C13.5058 7.04676 12.9867 7.56587 12.9867 8.20623V39.744C12.9867 40.3843 13.5058 40.9034 14.1462 40.9034H32.6978C33.3381 40.9034 33.8573 40.3843 33.8573 39.744V8.20623C33.8573 7.56587 33.3381 7.04676 32.6978 7.04676ZM14.1462 6.35107C13.1216 6.35107 12.291 7.18166 12.291 8.20623V39.744C12.291 40.7685 13.1216 41.5991 14.1462 41.5991H32.6978C33.7224 41.5991 34.5529 40.7685 34.5529 39.744V8.20623C34.5529 7.18166 33.7224 6.35107 32.6978 6.35107H14.1462Z" fill="#0E202E"/>
<path d="M14.146 9.13364C14.146 8.62135 14.5613 8.20605 15.0736 8.20605H31.77C32.2823 8.20605 32.6976 8.62135 32.6976 9.13363V38.8162C32.6976 39.3285 32.2823 39.7438 31.77 39.7438H15.0736C14.5613 39.7438 14.146 39.3285 14.146 38.8162V9.13364Z" fill="url(#paint0_linear_946_17388)"/>
<path fill-rule="evenodd" clip-rule="evenodd" d="M31.77 8.90174H15.0736C14.9455 8.90174 14.8417 9.00556 14.8417 9.13364V38.8162C14.8417 38.9443 14.9455 39.0481 15.0736 39.0481H31.77C31.8981 39.0481 32.0019 38.9443 32.0019 38.8162V9.13363C32.0019 9.00556 31.8981 8.90174 31.77 8.90174ZM15.0736 8.20605C14.5613 8.20605 14.146 8.62135 14.146 9.13364V38.8162C14.146 39.3285 14.5613 39.7438 15.0736 39.7438H31.77C32.2823 39.7438 32.6976 39.3285 32.6976 38.8162V9.13363C32.6976 8.62135 32.2823 8.20605 31.77 8.20605H15.0736Z" fill="url(#paint1_linear_946_17388)"/>
<circle cx="23.4216" cy="37.4251" r="1.39137" fill="url(#paint2_linear_946_17388)"/>
<path fill-rule="evenodd" clip-rule="evenodd" d="M26.2046 10.8109H20.6392V9.79639H26.2046V10.8109Z" fill="url(#paint3_linear_946_17388)"/>
<path d="M15.9111 12.8442H30.9327V35.1062H15.9111V12.8442Z" fill="url(#paint4_linear_946_17388)"/>
<path fill-rule="evenodd" clip-rule="evenodd" d="M30.4689 13.308H16.3749V34.6424H30.4689V13.308ZM15.9111 12.8442V35.1062H30.9327V12.8442H15.9111Z" fill="#06CCA6"/>
<path fill-rule="evenodd" clip-rule="evenodd" d="M34.089 28.6128C38.4435 28.6128 41.9735 26.1211 41.9735 23.0474C41.9735 19.9737 38.4435 17.4819 34.089 17.4819C29.7346 17.4819 26.2046 19.9737 26.2046 23.0474C26.2046 24.844 27.4106 26.4417 29.2823 27.4593C29.2847 27.4903 29.2873 27.5218 29.29 27.5538C29.355 28.3436 29.4437 29.4192 27.73 29.9577C26.0322 30.4911 31.0755 31.2313 32.4788 28.4967C32.9986 28.5728 33.5372 28.6128 34.089 28.6128Z" fill="url(#paint5_linear_946_17388)"/>
<path fill-rule="evenodd" clip-rule="evenodd" d="M28.7142 19.3964C27.3518 20.3581 26.5521 21.6541 26.5521 23.0476C26.5521 24.6752 27.6464 26.1744 29.4481 27.1539L29.614 27.244L29.6288 27.4322L29.6363 27.5254C29.637 27.5337 29.6377 27.5421 29.6384 27.5505C29.6699 27.9316 29.7146 28.4713 29.4971 28.9856C29.3058 29.438 28.9341 29.8285 28.2972 30.1151C28.4773 30.1241 28.6859 30.1229 28.9156 30.106C30.1021 30.0187 31.5524 29.5396 32.169 28.338L32.2826 28.1166L32.5289 28.1527C33.032 28.2264 33.5537 28.2652 34.0887 28.2652C36.2027 28.2652 38.1018 27.6598 39.4633 26.6988C40.8256 25.7371 41.6253 24.4411 41.6253 23.0476C41.6253 21.6541 40.8256 20.3581 39.4633 19.3964C38.1018 18.4354 36.2027 17.83 34.0887 17.83C31.9747 17.83 30.0756 18.4354 28.7142 19.3964ZM27.6583 30.3636C27.6582 30.3636 27.6596 30.3624 27.663 30.3601C27.6602 30.3625 27.6585 30.3636 27.6583 30.3636ZM28.313 18.828C29.8051 17.7748 31.8483 17.1343 34.0887 17.1343C36.3292 17.1343 38.3723 17.7748 39.8644 18.828C41.3557 19.8806 42.321 21.3674 42.321 23.0476C42.321 24.7278 41.3557 26.2145 39.8644 27.2671C38.3723 28.3204 36.3292 28.9609 34.0887 28.9609C33.6036 28.9609 33.1281 28.9309 32.6657 28.8732C31.8292 30.2384 30.1666 30.7115 28.9667 30.7998C28.336 30.8462 27.7584 30.793 27.4297 30.6625C27.3471 30.6296 27.2462 30.5791 27.167 30.4971C27.077 30.4039 26.9953 30.2419 27.0585 30.0511C27.1087 29.8994 27.2281 29.8102 27.307 29.7622C27.3964 29.7079 27.5055 29.6637 27.6254 29.626C28.4125 29.3787 28.7222 29.0319 28.8563 28.7147C28.9911 28.396 28.9794 28.0462 28.9502 27.6726C27.0996 26.6119 25.8564 24.9568 25.8564 23.0476C25.8564 21.3674 26.8218 19.8806 28.313 18.828Z" fill="#F9A825"/>
<path fill-rule="evenodd" clip-rule="evenodd" d="M28.627 24.3656C28.627 23.9814 28.8835 23.6699 29.1999 23.6699H39.0459C39.3624 23.6699 39.6189 23.9814 39.6189 24.3656C39.6189 24.7498 39.3624 25.0613 39.0459 25.0613H29.1999C28.8835 25.0613 28.627 24.7498 28.627 24.3656Z" fill="white"/>
<path fill-rule="evenodd" clip-rule="evenodd" d="M28.627 21.6708C28.627 21.2866 28.813 20.9751 29.0425 20.9751H36.1837C36.4132 20.9751 36.5993 21.2866 36.5993 21.6708C36.5993 22.055 36.4132 22.3665 36.1837 22.3665H29.0425C28.813 22.3665 28.627 22.055 28.627 21.6708Z" fill="white"/>
</g>
<defs>
<linearGradient id="paint0_linear_946_17388" x1="23.4218" y1="8.20605" x2="23.4218" y2="39.7438" gradientUnits="userSpaceOnUse">
<stop stop-color="#646F77"/>
<stop offset="1" stop-color="#0B1D2C"/>
</linearGradient>
<linearGradient id="paint1_linear_946_17388" x1="23.4218" y1="8.20605" x2="23.4218" y2="39.7438" gradientUnits="userSpaceOnUse">
<stop stop-color="#646F77"/>
<stop offset="1" stop-color="#0B1D2C"/>
</linearGradient>
<linearGradient id="paint2_linear_946_17388" x1="23.4216" y1="36.3122" x2="23.4216" y2="38.796" gradientUnits="userSpaceOnUse">
<stop stop-color="white"/>
<stop offset="1" stop-color="#DBFFF8"/>
</linearGradient>
<linearGradient id="paint3_linear_946_17388" x1="23.4218" y1="9.89793" x2="23.4218" y2="10.8035" gradientUnits="userSpaceOnUse">
<stop stop-color="white"/>
<stop offset="1" stop-color="#DBFFF8"/>
</linearGradient>
<linearGradient id="paint4_linear_946_17388" x1="23.4217" y1="15.0724" x2="23.4217" y2="34.9429" gradientUnits="userSpaceOnUse">
<stop offset="0.197917" stop-color="#DBFFF8"/>
<stop offset="1" stop-color="white"/>
</linearGradient>
<linearGradient id="paint5_linear_946_17388" x1="34.089" y1="17.4819" x2="34.089" y2="30.4683" gradientUnits="userSpaceOnUse">
<stop stop-color="#FFE143"/>
<stop offset="1" stop-color="#F9A825"/>
</linearGradient>
</defs>
</svg>
